<?xml version="1.0" standalone="no"?>
<!DOCTYPE svg PUBLIC "-//W3C//DTD SVG 20010904//EN"
 "http://www.w3.org/TR/2001/REC-SVG-20010904/DTD/svg10.dtd">
<svg version="1.0" xmlns="http://www.w3.org/2000/svg"
 width="755.000000pt" height="825.000000pt" viewBox="0 0 755.000000 825.000000"
 preserveAspectRatio="xMidYMid meet">

<g transform="translate(0.000000,825.000000) scale(0.100000,-0.100000)"
fill="#000000" stroke="none">
<path d="M2075 6438 c10 -46 385 -1947 385 -1953 0 -7 72 -29 370 -115 173
-50 422 -123 554 -161 131 -38 240 -68 242 -66 4 4 -96 35 -359 112 -257 75
-637 185 -714 207 -47 13 -73 25 -76 37 -3 14 1 16 24 13 16 -2 29 -11 29 -18
0 -8 5 -14 11 -14 5 0 7 6 3 13 -4 6 2 3 14 -7 12 -11 22 -15 22 -10 0 5 4 4
8 -1 7 -11 206 -76 230 -75 7 0 10 4 7 10 -3 6 1 7 10 3 14 -5 14 -8 3 -15 -9
-7 -6 -8 10 -5 13 3 21 3 18 -1 -4 -3 33 -18 81 -32 48 -14 90 -22 91 -18 2 4
19 8 38 8 21 0 33 -4 29 -10 -3 -6 -18 -8 -33 -5 -27 5 -27 5 -3 -5 13 -6 29
-9 35 -7 6 2 17 -3 25 -10 8 -8 22 -12 33 -10 10 3 16 2 13 -2 -7 -12 94 -33
162 -35 37 -1 67 -7 78 -16 17 -14 18 -13 12 3 -3 9 -2 17 3 17 15 0 12 -40
-2 -41 -31 -1 102 -40 142 -41 25 0 50 -5 57 -10 6 -5 20 -8 30 -6 10 1 24 -1
31 -5 7 -5 12 -3 12 7 0 10 6 13 15 10 8 -4 13 -9 10 -13 -2 -4 2 -8 10 -8 8
0 12 4 10 8 -3 3 3 13 12 20 9 8 14 9 11 4 -4 -7 8 -9 33 -7 30 3 39 8 39 23
0 10 6 18 13 17 7 -2 11 5 9 16 -3 13 1 17 11 13 15 -6 54 39 49 56 -1 5 2 6
7 3 11 -7 82 79 73 89 -4 5 -1 5 6 1 14 -9 -2 -31 -145 -197 l-83 -97 -66 14
c-37 8 -69 13 -71 11 -8 -9 127 -38 140 -30 14 7 162 181 586 687 457 544 661
791 661 798 0 5 -5 8 -11 8 -5 0 -8 -4 -5 -8 2 -4 -11 -26 -29 -47 -29 -35
-33 -37 -32 -17 1 12 5 22 9 22 3 0 6 9 5 20 -2 24 -5 25 -252 95 -110 31
-209 60 -219 63 -14 4 -17 2 -11 -8 5 -8 3 -11 -6 -8 -8 3 -13 11 -11 17 2 13
-14 15 -22 2 -7 -10 -31 -9 -42 2 -4 4 4 7 17 8 16 1 10 5 -21 14 -25 7 -76
23 -115 35 -137 41 -178 51 -192 46 -8 -3 -12 -2 -9 3 3 5 -16 14 -42 21 -26
7 -66 19 -90 26 -24 8 -53 12 -65 11 -12 -2 -15 -2 -7 1 20 6 -179 64 -202 59
-10 -3 -16 -1 -12 4 3 5 3 9 1 9 -2 0 -41 12 -88 26 -46 14 -100 30 -119 34
-19 5 -96 27 -170 49 -143 44 -154 46 -146 32 3 -5 -12 -4 -34 1 -28 7 -44 7
-53 0 -10 -8 -13 -6 -14 9 -1 14 3 19 15 15 36 -10 87 -18 82 -13 -11 11 -218
66 -260 69 -25 2 -43 7 -40 12 7 12 -176 66 -230 68 -32 1 -39 3 -25 9 14 5
15 8 4 8 -8 1 -19 -3 -25 -8 -5 -5 -18 -10 -29 -12 -30 -4 -105 11 -105 22 0
4 -7 6 -15 3 -10 -4 -15 0 -15 14 0 11 8 23 18 25 10 3 6 6 -13 7 -46 5 -49 5
-60 12 -6 4 -17 3 -25 -2 -9 -5 -20 -4 -29 3 -11 9 -15 9 -18 0 -5 -15 -33 -5
-33 12 0 7 5 15 12 17 6 2 -24 15 -67 27 -58 18 -79 20 -85 11 -5 -8 -9 -5
-13 9 -4 18 -2 20 21 16 23 -5 24 -4 7 4 -34 16 -46 13 -40 -11z m115 -47 c0
-5 9 -7 20 -4 22 6 29 -20 8 -33 -7 -5 -9 -2 -5 9 4 11 0 15 -14 14 -11 -1
-17 -7 -15 -14 3 -7 0 -13 -7 -13 -7 0 -13 11 -13 25 0 14 6 25 13 25 7 0 13
-4 13 -9z m-83 -23 c-3 -8 -6 -5 -6 6 -1 11 2 17 5 13 3 -3 4 -12 1 -19z m140
-90 c-3 -8 -6 -5 -6 6 -1 11 2 17 5 13 3 -3 4 -12 1 -19z m103 11 c0 -15 -18
-19 -23 -6 -3 8 1 14 9 14 8 0 14 -4 14 -8z m55 -19 c-3 -5 -14 -6 -26 -3 -15
4 -17 8 -8 13 15 10 41 1 34 -10z m243 -22 c-2 -7 3 -12 10 -10 8 1 11 -2 7
-8 -5 -8 -11 -8 -21 1 -7 6 -11 15 -8 20 8 13 14 11 12 -3z m102 -28 c-7 -4
-9 -13 -6 -19 4 -6 2 -11 -4 -11 -6 0 -8 -6 -4 -12 4 -7 1 -6 -7 2 -8 8 -21
21 -29 28 -13 12 -12 13 5 10 11 -2 19 2 18 8 -1 7 6 10 18 7 14 -4 17 -8 9
-13z m-135 1 c3 -5 2 -12 -3 -15 -5 -3 -9 1 -9 9 0 17 3 19 12 6z m-214 -24
c-10 -9 -11 -8 -5 6 3 10 9 15 12 12 3 -3 0 -11 -7 -18z m403 17 c16 -6 12
-24 -5 -24 -6 0 -7 5 -3 11 4 8 -1 9 -16 4 -15 -5 -20 -4 -16 4 8 12 17 14 40
5z m-170 -140 c3 -8 2 -12 -4 -9 -6 3 -10 10 -10 16 0 14 7 11 14 -7z m676
-18 c0 -8 -7 -16 -15 -20 -10 -4 -15 1 -15 14 0 11 7 20 15 20 8 0 15 -6 15
-14z m34 -2 c20 -8 21 -21 1 -21 -8 0 -16 6 -19 14 -6 15 -4 15 18 7z m-1167
-26 c-3 -8 -6 -5 -6 6 -1 11 2 17 5 13 3 -3 4 -12 1 -19z m1376 -63 c-3 -9 -8
-14 -10 -11 -3 3 -2 9 2 15 9 16 15 13 8 -4z m82 -4 c-3 -2 -16 -6 -28 -8 -15
-2 -18 0 -9 5 14 9 45 12 37 3z m-1438 -43 c-3 -8 -6 -5 -6 6 -1 11 2 17 5 13
3 -3 4 -12 1 -19z m1963 -123 c0 -2 -9 -3 -19 -2 -11 0 -18 5 -15 9 4 6 34 0
34 -7z m58 0 c3 -3 -4 -4 -16 -2 -12 2 -24 6 -28 10 -4 3 4 4 16 2 12 -2 25
-7 28 -10z m464 -143 c-14 -2 -20 -8 -16 -15 5 -9 4 -9 -6 0 -18 16 -4 32 23
25 l22 -7 -23 -3z m-1589 -11 c-4 -3 -11 -10 -15 -15 -4 -4 -6 1 -5 12 1 12 6
18 15 15 7 -3 10 -9 5 -12z m461 -37 c3 -8 2 -12 -4 -9 -6 3 -10 10 -10 16 0
14 7 11 14 -7z m161 6 c3 -5 1 -10 -4 -10 -6 0 -11 5 -11 10 0 6 2 10 4 10 3
0 8 -4 11 -10z m-1281 -8 c3 -5 -1 -9 -9 -9 -8 0 -12 4 -9 9 3 4 7 8 9 8 2 0
6 -4 9 -8z m790 -51 c-2 -3 -12 3 -22 13 -16 17 -16 18 5 5 12 -7 20 -15 17
-18z m1713 -18 c0 -9 -4 -10 -14 -2 -7 6 -13 12 -13 14 0 1 6 2 13 2 8 0 14
-6 14 -14z m-1787 -18 c0 -2 -6 -5 -13 -8 -8 -3 -14 1 -14 8 0 7 6 11 14 8 7
-3 13 -6 13 -8z m1787 -24 c-8 -9 -58 -70 -113 -136 -54 -66 -108 -131 -120
-145 -27 -31 -135 -160 -442 -527 -130 -156 -238 -280 -241 -278 -2 3 6 16 18
29 14 15 20 30 16 37 -5 7 -4 10 3 5 14 -8 52 41 46 59 -3 7 0 16 7 21 9 5 10
2 5 -11 -4 -12 5 -6 24 13 17 18 28 37 25 43 -4 5 -1 8 7 7 7 -2 12 3 11 10
-2 6 4 12 12 12 14 0 20 12 16 33 -1 5 2 6 7 3 15 -9 53 39 46 58 -5 12 -2 17
8 14 16 -3 139 132 131 144 -2 5 -1 7 4 6 4 -2 8 -1 9 2 0 3 28 34 62 70 57
60 78 91 50 74 -7 -4 -8 -3 -4 5 4 6 11 9 15 7 11 -7 53 43 46 55 -4 5 -1 8 5
7 7 -2 14 5 15 15 4 22 15 36 15 18 0 -7 11 1 25 17 15 18 23 37 19 46 -4 11
0 16 14 16 24 0 135 127 125 143 -3 6 -1 7 4 4 6 -4 24 10 39 31 16 20 40 50
54 66 14 16 24 32 23 36 -1 3 5 7 13 7 12 0 12 -3 1 -16z m-2610 -223 c-3 -8
-6 -5 -6 6 -1 11 2 17 5 13 3 -3 4 -12 1 -19z m763 -38 c0 -5 -5 -10 -11 -10
-5 0 -7 5 -4 10 3 6 8 10 11 10 2 0 4 -4 4 -10z m-753 -22 c-3 -8 -6 -5 -6 6
-1 11 2 17 5 13 3 -3 4 -12 1 -19z m80 -410 c-3 -8 -6 -5 -6 6 -1 11 2 17 5
13 3 -3 4 -12 1 -19z m10 -50 c-3 -8 -6 -5 -6 6 -1 11 2 17 5 13 3 -3 4 -12 1
-19z m10 -40 c-3 -8 -6 -5 -6 6 -1 11 2 17 5 13 3 -3 4 -12 1 -19z"/>
<path d="M2148 6433 c7 -3 16 -2 19 1 4 3 -2 6 -13 5 -11 0 -14 -3 -6 -6z"/>
<path d="M2265 6399 c87 -29 279 -86 515 -154 63 -19 360 -106 660 -195 300
-88 574 -169 610 -179 36 -11 128 -38 205 -60 77 -23 208 -61 290 -85 278 -83
438 -127 447 -124 5 2 -82 30 -194 62 -112 32 -246 71 -298 86 -52 16 -237 70
-410 120 -492 143 -955 280 -1627 479 -273 81 -367 105 -198 50z"/>
<path d="M2285 6370 c27 -12 43 -12 25 0 -8 5 -22 9 -30 9 -10 0 -8 -3 5 -9z"/>
<path d="M2421 6321 c-11 -7 -10 -10 5 -15 11 -3 23 -5 28 -5 5 0 13 -5 17
-13 7 -10 9 -9 9 4 0 11 7 15 23 12 12 -2 6 2 -13 10 -42 17 -51 18 -69 7z"/>
<path d="M1169 5413 c-13 -16 -12 -17 4 -4 9 7 17 15 17 17 0 8 -8 3 -21 -13z"/>
<path d="M1114 5348 l-19 -23 23 19 c21 18 27 26 19 26 -2 0 -12 -10 -23 -22z"/>
<path d="M1059 5283 c-13 -16 -12 -17 4 -4 16 13 21 21 13 21 -2 0 -10 -8 -17
-17z"/>
<path d="M719 4883 c-13 -16 -12 -17 4 -4 9 7 17 15 17 17 0 8 -8 3 -21 -13z"/>
<path d="M199 4273 c-13 -16 -12 -17 4 -4 9 7 17 15 17 17 0 8 -8 3 -21 -13z"/>
<path d="M3355 4250 c-16 -6 -15 -8 10 -13 35 -6 37 -6 21 9 -6 6 -20 8 -31 4z"/>
<path d="M70 4062 c0 -17 627 -3120 634 -3137 15 -35 -1 58 -54 316 -34 162
-85 416 -115 564 -48 240 -181 896 -380 1878 -36 181 -64 334 -61 340 2 7 5 4
5 -6 1 -11 6 -15 13 -11 6 4 8 3 4 -4 -10 -16 5 -91 18 -88 6 2 8 1 4 -1 -5
-3 -8 -19 -8 -36 0 -25 3 -29 11 -17 7 11 8 6 4 -19 -4 -18 -3 -31 1 -28 5 3
10 -16 12 -41 3 -67 35 -222 45 -222 5 0 5 -9 2 -20 -7 -22 5 -26 22 -9 9 9
11 4 9 -19 -3 -37 -16 -55 -16 -22 0 13 -3 21 -6 18 -3 -4 -2 -28 2 -55 7 -42
8 -45 16 -23 6 21 7 19 4 -10 -2 -19 4 -75 14 -125 10 -49 19 -86 19 -80 1 5
8 0 16 -12 10 -14 22 -20 33 -17 13 5 14 4 3 -4 -11 -8 -11 -10 0 -15 8 -3 4
-6 -9 -6 -13 -1 -21 3 -18 8 3 5 -1 15 -10 22 -14 11 -15 8 -8 -27 8 -44 22
-85 23 -66 1 6 5 12 10 12 10 0 9 -12 -2 -45 -4 -11 4 -72 17 -135 13 -63 24
-109 25 -101 1 11 6 10 22 -5 12 -10 24 -18 27 -16 3 1 6 -11 6 -28 1 -16 -2
-30 -6 -30 -5 0 -8 -5 -8 -11 0 -5 4 -8 8 -5 4 2 6 -11 4 -30 -5 -40 -9 -42
-22 -11 l-9 22 0 -22 c-1 -13 4 -23 10 -23 6 0 9 -9 6 -20 -3 -11 -1 -17 4
-14 6 3 8 -6 5 -22 -3 -15 -1 -33 5 -40 6 -7 8 -17 5 -22 -8 -13 15 -123 24
-117 4 2 7 -8 7 -23 -1 -63 3 -87 12 -73 5 8 7 20 5 26 -5 13 25 30 34 20 3
-3 1 -5 -4 -5 -6 0 -9 -22 -7 -50 2 -27 0 -50 -4 -50 -5 0 -10 -14 -11 -31 -1
-17 2 -28 6 -25 5 3 7 -6 4 -21 -4 -22 -2 -25 13 -19 15 5 16 4 6 -8 -16 -20
5 -132 26 -140 11 -5 13 -2 9 9 -3 9 -2 13 3 10 15 -8 9 -45 -7 -45 -9 0 -12
-6 -8 -16 3 -9 9 -34 12 -57 4 -23 10 -47 15 -52 4 -6 10 -37 13 -70 9 -86 27
-178 38 -190 6 -7 14 -4 22 8 15 19 36 23 36 6 0 -5 -4 -8 -9 -4 -17 10 -21
-12 -5 -26 14 -12 14 -14 -2 -26 -11 -8 -13 -13 -5 -13 8 0 7 -5 -4 -17 -13
-12 -15 -26 -11 -52 3 -20 6 -45 6 -56 0 -12 3 -16 8 -8 4 6 16 13 27 15 11 1
23 10 27 18 6 11 7 10 5 -4 -1 -11 -11 -20 -21 -22 -10 -1 -23 -9 -27 -16 -11
-17 -11 -41 0 -34 4 3 6 -5 4 -17 -2 -12 5 -58 15 -102 11 -44 20 -68 21 -52
1 15 6 27 12 27 5 0 8 4 5 8 -3 5 1 9 9 9 13 0 12 -4 -2 -19 -9 -10 -13 -21
-10 -25 4 -3 7 -1 7 5 0 7 5 12 11 12 6 0 9 -8 7 -17 -2 -10 -10 -17 -17 -15
-7 1 -10 -2 -6 -7 3 -6 11 -8 18 -5 8 3 12 -10 11 -43 -1 -27 3 -54 10 -62 8
-12 8 -13 -2 -7 -10 6 -12 -8 -11 -64 1 -57 4 -69 14 -58 7 7 74 86 149 175
75 89 141 165 147 169 5 3 7 14 4 23 -3 11 2 24 12 32 16 13 17 12 4 -4 -8 -9
-11 -20 -9 -23 3 -3 53 50 110 118 58 68 259 302 446 522 188 219 342 404 342
410 0 7 -16 88 -36 181 -77 369 -214 1028 -214 1032 0 1 -6 3 -14 3 -13 0
-923 272 -1376 411 -107 33 -203 62 -212 65 -10 3 -18 1 -18 -4z m1557 -478
c-3 -3 -12 -4 -19 -1 -8 3 -5 6 6 6 11 1 17 -2 13 -5z m72 -94 c17 -90 105
-515 170 -819 34 -156 61 -291 60 -300 -1 -19 -33 105 -44 166 -4 24 -10 45
-14 48 -5 2 -6 -7 -3 -22 3 -17 1 -24 -6 -19 -7 4 -10 -1 -7 -14 2 -11 0 -20
-4 -20 -4 0 -8 14 -9 30 0 17 4 28 9 25 5 -4 9 -1 9 4 0 6 -6 11 -12 11 -10 0
-9 3 1 9 8 5 10 14 6 21 -5 9 -4 11 3 6 7 -4 12 -2 12 3 0 6 -4 11 -9 11 -4 0
-6 12 -3 26 4 21 2 25 -8 19 -10 -6 -12 -4 -7 9 8 20 -20 169 -32 174 -5 1 -6
14 -3 27 4 24 -4 30 -36 26 -11 -2 -11 2 -2 20 10 18 14 19 22 8 8 -12 9 -11
5 1 -2 8 -11 14 -19 12 -12 -2 -15 6 -15 33 1 19 6 35 11 35 6 0 5 5 -1 11 -6
6 -9 17 -6 25 7 18 -26 175 -43 201 -8 12 -14 28 -13 35 0 7 5 4 10 -7 10 -21
10 -21 -8 66 -3 16 -9 26 -14 23 -4 -2 -3 -16 3 -30 9 -18 9 -27 0 -36 -6 -6
-15 -8 -19 -4 -4 4 -1 11 7 16 10 7 11 10 3 10 -15 0 -18 56 -3 65 6 3 10 14
10 23 0 13 -2 14 -9 4 -5 -8 -9 16 -9 59 -1 40 0 70 2 68 2 -2 9 -29 15 -59z
m-9 -225 c7 -9 8 -15 2 -15 -5 0 -12 7 -16 15 -3 8 -4 15 -2 15 2 0 9 -7 16
-15z m-1312 -140 c-3 -3 -9 2 -12 12 -6 14 -5 15 5 6 7 -7 10 -15 7 -18z m13
-18 c-10 -9 -11 -8 -5 6 3 10 9 15 12 12 3 -3 0 -11 -7 -18z m-1 -27 c0 -5 -5
-10 -11 -10 -5 0 -7 5 -4 10 3 6 8 10 11 10 2 0 4 -4 4 -10z m-66 -66 c3 -8 2
-12 -4 -9 -6 3 -10 10 -10 16 0 14 7 11 14 -7z m41 -4 c-3 -5 -12 -10 -18 -10
-7 0 -6 4 3 10 19 12 23 12 15 0z m110 -12 c5 4 5 1 1 -6 -6 -10 -11 -10 -22
-1 -8 6 -14 14 -14 16 0 3 6 0 13 -6 8 -6 18 -7 22 -3z m-75 -40 c0 -6 -6 -5
-15 2 -8 7 -15 14 -15 16 0 2 7 1 15 -2 8 -4 15 -11 15 -16z m-29 -15 c12 -16
12 -17 -2 -6 -9 7 -20 9 -24 5 -5 -4 -5 -1 -1 6 9 16 11 15 27 -5z m24 -44
c-10 -15 -25 -10 -19 6 4 8 10 12 15 9 5 -3 7 -10 4 -15z m-6 -53 c9 -11 6
-12 -15 -8 -19 3 -22 7 -12 13 16 11 14 11 27 -5z m91 -192 c0 -8 -5 -12 -10
-9 -6 4 -8 11 -5 16 9 14 15 11 15 -7z m-60 -14 c0 -5 -4 -10 -10 -10 -5 0
-10 5 -10 10 0 6 5 10 10 10 6 0 10 -4 10 -10z m40 -65 c0 -2 -7 -5 -15 -9 -9
-3 -15 0 -15 9 0 9 6 12 15 9 8 -4 15 -7 15 -9z m80 -5 c0 -5 -2 -10 -4 -10
-3 0 -8 5 -11 10 -3 6 -1 10 4 10 6 0 11 -4 11 -10z m-71 -27 c-10 -11 -10
-14 -1 -9 6 4 12 3 12 -2 0 -17 -13 -22 -27 -11 -10 9 -10 15 -2 25 6 8 16 14
21 14 6 0 4 -8 -3 -17z m415 -1 c3 -5 -1 -9 -9 -9 -8 0 -12 4 -9 9 3 4 7 8 9
8 2 0 6 -4 9 -8z m993 -24 c-3 -8 -6 -5 -6 6 -1 11 2 17 5 13 3 -3 4 -12 1
-19z m-1408 -75 c-6 -7 -15 -10 -20 -7 -13 8 -3 21 15 21 12 0 13 -4 5 -14z
m21 -28 c0 -2 -6 -8 -13 -14 -10 -8 -14 -7 -14 2 0 8 6 14 14 14 7 0 13 -1 13
-2z m30 -75 c0 -5 -2 -10 -4 -10 -3 0 -8 5 -11 10 -3 6 -1 10 4 10 6 0 11 -4
11 -10z m160 0 c0 -5 -5 -10 -11 -10 -5 0 -7 5 -4 10 3 6 8 10 11 10 2 0 4 -4
4 -10z m1175 -55 c-26 -30 -50 -55 -53 -55 -5 0 8 16 67 83 45 50 33 28 -14
-28z m-1335 -25 c0 -5 -5 -10 -11 -10 -5 0 -7 5 -4 10 3 6 8 10 11 10 2 0 4
-4 4 -10z m27 -32 c-3 -8 -6 -5 -6 6 -1 11 2 17 5 13 3 -3 4 -12 1 -19z m-2
-72 c12 -12 12 -16 -2 -28 -15 -11 -16 -11 -10 4 4 11 0 21 -11 27 -11 7 -12
10 -4 11 7 0 20 -6 27 -14z m-6 -60 c8 -10 8 -16 -3 -25 -11 -9 -16 -9 -22 0
-4 7 -3 9 4 5 6 -3 13 -2 17 4 3 5 1 10 -4 10 -6 0 -11 5 -11 10 0 14 5 13 19
-4z m91 -86 c0 -5 -5 -10 -11 -10 -5 0 -7 5 -4 10 3 6 8 10 11 10 2 0 4 -4 4
-10z m-70 -38 c-6 -2 -8 -7 -5 -12 3 -4 -1 -10 -9 -13 -9 -4 -16 3 -19 18 -2
14 -1 22 4 20 4 -3 11 0 15 6 4 8 9 7 15 -2 5 -8 4 -15 -1 -17z m2 -95 c-9
-18 -24 12 -16 34 l8 24 6 -25 c4 -14 5 -29 2 -33z m133 44 c3 -5 2 -12 -3
-15 -5 -3 -9 1 -9 9 0 17 3 19 12 6z m795 -64 c0 -2 -12 -14 -27 -28 l-28 -24
24 28 c23 25 31 32 31 24z m-60 -71 c0 -2 -8 -10 -17 -17 -16 -13 -17 -12 -4
4 13 16 21 21 21 13z m-344 -84 c-17 -16 -18 -16 -5 5 7 12 15 20 18 17 3 -2
-3 -12 -13 -22z m-356 -26 c0 -2 -8 -10 -17 -17 -16 -13 -17 -12 -4 4 13 16
21 21 21 13z m-89 -24 c-7 -2 -18 1 -23 6 -8 8 -4 9 13 5 13 -4 18 -8 10 -11z
m-2 -185 c0 -21 -1 -21 -9 -2 -12 28 -12 37 0 30 6 -3 10 -16 9 -28z m36 -65
c-3 -3 -11 0 -18 7 -9 10 -8 11 6 5 10 -3 15 -9 12 -12z m30 9 c3 -5 2 -12 -3
-15 -5 -3 -9 1 -9 9 0 17 3 19 12 6z m-9 -46 c-2 -7 1 -18 7 -24 9 -9 8 -14
-3 -21 -19 -12 -34 -1 -20 15 8 9 6 14 -5 19 -10 3 -15 0 -15 -11 0 -9 -3 -13
-7 -10 -11 12 18 56 34 50 8 -3 12 -11 9 -18z m324 -58 c0 -2 -12 -14 -27 -28
l-28 -24 24 28 c23 25 31 32 31 24z m-312 -19 c-3 -7 -13 -14 -24 -15 -11 -2
-14 0 -5 3 11 5 11 8 0 15 -10 6 -8 9 9 9 15 0 22 -5 20 -12z m242 -61 c0 -2
-10 -12 -22 -23 l-23 -19 19 23 c18 21 26 27 26 19z m-40 -50 c0 -2 -15 -16
-32 -33 l-33 -29 29 33 c28 30 36 37 36 29z m-102 -118 c-23 -28 -51 -61 -61
-73 -17 -19 -17 -19 -8 -1 10 22 100 125 108 125 3 0 -15 -23 -39 -51z m-33 1
c-3 -5 -12 -10 -18 -10 -7 0 -6 4 3 10 19 12 23 12 15 0z"/>
<path d="M352 2785 c0 -11 3 -33 7 -50 l7 -30 5 26 c3 15 0 38 -7 50 -12 22
-13 22 -12 4z"/>
<path d="M451 2294 c0 -11 3 -14 6 -6 3 7 2 16 -1 19 -3 4 -6 -2 -5 -13z"/>
<path d="M605 1569 c-4 -17 -4 -33 -1 -36 3 -4 6 4 6 16 0 12 7 24 15 27 8 4
12 10 9 15 -10 17 -22 9 -29 -22z"/>
<path d="M681 1154 c0 -10 4 -28 8 -38 7 -20 8 -19 13 0 3 11 -1 29 -8 39 -14
18 -14 18 -13 -1z"/>
</g>
</svg>
